<svg width="68" height="63" viewBox="0 0 68 63" fill="none" xmlns="http://www.w3.org/2000/svg">
<path d="M14.9007 56.6357C18.2171 56.6357 21.3774 56.6204 24.5548 56.6357C33.4737 56.6843 42.3925 56.7445 51.3113 56.8161C52.0124 56.8161 52.3591 56.6242 52.6448 55.9565C54.6545 51.1733 56.7156 46.413 58.7615 41.6451C58.8472 41.4532 58.931 41.2441 59.0606 40.9371H38.2017C39.3694 39.6592 40.5752 38.3238 41.8001 37.0095C42.2553 36.5203 42.6973 35.9696 43.2554 35.6396C43.9374 35.2367 44.7336 34.7934 45.4842 34.7877C52.5324 34.7301 59.5806 34.7627 66.6288 34.7723C68.0937 34.7723 68.2728 35.0601 67.7051 36.384C64.2115 44.5461 60.6969 52.6929 57.2528 60.8856C56.6185 62.388 55.7289 62.9962 54.0754 62.9962C38.5541 62.9444 23.0252 62.9616 7.50766 62.9559C5.92467 62.9559 5.80848 62.764 6.46377 61.2291C10.8718 50.9961 15.2778 40.7631 19.682 30.5301C22.3349 24.3596 24.972 18.1815 27.5932 11.9956C27.8979 11.2704 28.2618 11.067 28.9971 11.0862C30.8334 11.138 32.6736 11.1034 34.7119 11.1034L14.9007 56.6357Z" fill="#111013"/>
<path d="M32.8943 45.6626H51.0749C50.5377 47.0191 50.0462 48.2759 49.551 49.5288C48.608 51.8696 48.5985 51.8657 46.0878 51.8657H24.7527H23.5183L43.1066 6.35646H41.9637C36.0584 6.35646 30.1531 6.38141 24.2479 6.3392C23.4173 6.3392 23.0516 6.59246 22.724 7.34843C16.2828 22.4984 9.82064 37.6374 3.33756 52.7656C3.26517 52.9344 3.18135 53.0995 3.01563 53.4506C2.43272 51.9156 1.89172 50.5399 1.39454 49.1566C-0.498954 43.8802 -0.510383 45.6492 1.62694 40.7143C7.23694 27.7402 12.925 14.7987 18.5293 1.82261C19.1008 0.479532 19.9961 -0.00589382 21.3105 -0.0078125C23.0878 -0.0078125 24.8651 0.0132931 26.6443 0.0132931C34.5497 0.0132931 42.4539 0.00881481 50.3568 -0.000139051C52.1645 -0.000139051 52.4331 0.404704 51.6902 2.12001C47.5984 11.5855 43.5016 21.051 39.3996 30.5165C37.3118 35.3363 35.226 40.156 33.142 44.9757C33.0677 45.1542 33.0143 45.3326 32.8943 45.6626Z" fill="#111013"/>
</svg>
